<svg xmlns="http://www.w3.org/2000/svg" xmlns:xlink="http://www.w3.org/1999/xlink" width="500" zoomAndPan="magnify" viewBox="0 0 375 374.999991" height="500" preserveAspectRatio="xMidYMid meet" version="1.0"><defs><g/></defs><g fill="#e4e1da" fill-opacity="1"><g transform="translate(3.469053, 363.788739)"><g><path d="M 213.234375 -72.640625 C 225.484375 -72.640625 237.375 -74.488281 248.90625 -78.1875 C 260.445312 -81.894531 268.925781 -85.460938 274.34375 -88.890625 L 282.46875 -94.4375 L 316.65625 -26.0625 C 315.507812 -25.207031 313.9375 -24.066406 311.9375 -22.640625 C 309.945312 -21.222656 305.320312 -18.585938 298.0625 -14.734375 C 290.800781 -10.890625 283.035156 -7.539062 274.765625 -4.6875 C 266.503906 -1.84375 255.675781 0.710938 242.28125 2.984375 C 228.894531 5.265625 215.082031 6.40625 200.84375 6.40625 C 168.082031 6.40625 137.03125 -1.640625 107.6875 -17.734375 C 78.34375 -33.828125 54.695312 -55.972656 36.75 -84.171875 C 18.800781 -112.378906 9.828125 -142.863281 9.828125 -175.625 C 9.828125 -200.414062 15.097656 -224.207031 25.640625 -247 C 36.179688 -269.789062 50.210938 -289.300781 67.734375 -305.53125 C 85.253906 -321.769531 105.691406 -334.734375 129.046875 -344.421875 C 152.410156 -354.109375 176.34375 -358.953125 200.84375 -358.953125 C 223.632812 -358.953125 244.644531 -356.242188 263.875 -350.828125 C 283.101562 -345.421875 296.707031 -340.007812 304.6875 -334.59375 L 316.65625 -326.484375 L 282.46875 -258.109375 C 280.46875 -259.816406 277.472656 -261.878906 273.484375 -264.296875 C 269.492188 -266.722656 261.515625 -269.929688 249.546875 -273.921875 C 237.585938 -277.910156 225.484375 -279.90625 213.234375 -279.90625 C 193.859375 -279.90625 176.476562 -276.769531 161.09375 -270.5 C 145.71875 -264.226562 133.539062 -255.960938 124.5625 -245.703125 C 115.59375 -235.453125 108.753906 -224.414062 104.046875 -212.59375 C 99.347656 -200.769531 97 -188.734375 97 -176.484375 C 97 -149.703125 107.039062 -125.695312 127.125 -104.46875 C 147.207031 -83.25 175.910156 -72.640625 213.234375 -72.640625 Z M 213.234375 -72.640625 "/></g></g></g></svg>