<svg xmlns="http://www.w3.org/2000/svg" xmlns:xlink="http://www.w3.org/1999/xlink" width="2000" zoomAndPan="magnify" viewBox="0 0 1500 299.999988" height="400" preserveAspectRatio="xMidYMid meet" version="1.0"><defs><g/></defs><g fill="#e4e1da" fill-opacity="1"><g transform="translate(-2.70098, 221.321846)"><g><path d="M 127.015625 -43.265625 C 134.304688 -43.265625 141.390625 -44.367188 148.265625 -46.578125 C 155.140625 -48.785156 160.1875 -50.90625 163.40625 -52.9375 L 168.25 -56.25 L 188.609375 -15.53125 C 187.929688 -15.019531 187 -14.335938 185.8125 -13.484375 C 184.625 -12.640625 181.863281 -11.070312 177.53125 -8.78125 C 173.207031 -6.488281 168.582031 -4.492188 163.65625 -2.796875 C 158.738281 -1.097656 152.289062 0.425781 144.3125 1.78125 C 136.34375 3.132812 128.113281 3.8125 119.625 3.8125 C 100.113281 3.8125 81.617188 -0.976562 64.140625 -10.5625 C 46.660156 -20.144531 32.578125 -33.335938 21.890625 -50.140625 C 11.203125 -66.941406 5.859375 -85.097656 5.859375 -104.609375 C 5.859375 -119.367188 8.992188 -133.535156 15.265625 -147.109375 C 21.546875 -160.691406 29.90625 -172.316406 40.34375 -181.984375 C 50.78125 -191.660156 62.953125 -199.382812 76.859375 -205.15625 C 90.773438 -210.925781 105.03125 -213.8125 119.625 -213.8125 C 133.195312 -213.8125 145.710938 -212.195312 157.171875 -208.96875 C 168.628906 -205.75 176.734375 -202.523438 181.484375 -199.296875 L 188.609375 -194.46875 L 168.25 -153.734375 C 167.0625 -154.753906 165.28125 -155.984375 162.90625 -157.421875 C 160.53125 -158.867188 155.773438 -160.78125 148.640625 -163.15625 C 141.515625 -165.53125 134.304688 -166.71875 127.015625 -166.71875 C 115.472656 -166.71875 105.117188 -164.847656 95.953125 -161.109375 C 86.796875 -157.378906 79.539062 -152.457031 74.1875 -146.34375 C 68.84375 -140.238281 64.769531 -133.664062 61.96875 -126.625 C 59.175781 -119.582031 57.78125 -112.414062 57.78125 -105.125 C 57.78125 -89.175781 63.757812 -74.878906 75.71875 -62.234375 C 87.6875 -49.585938 104.785156 -43.265625 127.015625 -43.265625 Z M 127.015625 -43.265625 "/></g></g></g><g fill="#e4e1da" fill-opacity="1"><g transform="translate(164.989211, 221.321846)"><g><path d="M 15.265625 0 L 15.265625 -218.890625 L 60.328125 -218.890625 L 60.328125 -116.828125 L 60.828125 -116.828125 C 72.535156 -128.535156 85.007812 -134.390625 98.25 -134.390625 C 104.695312 -134.390625 111.101562 -133.539062 117.46875 -131.84375 C 123.832031 -130.144531 129.941406 -127.515625 135.796875 -123.953125 C 141.648438 -120.390625 146.398438 -115.34375 150.046875 -108.8125 C 153.691406 -102.28125 155.515625 -94.6875 155.515625 -86.03125 L 155.515625 0 L 110.46875 0 L 110.46875 -73.8125 C 110.46875 -80.601562 108.300781 -86.539062 103.96875 -91.625 C 99.644531 -96.71875 94.003906 -99.265625 87.046875 -99.265625 C 80.265625 -99.265625 74.113281 -96.632812 68.59375 -91.375 C 63.082031 -86.113281 60.328125 -80.257812 60.328125 -73.8125 L 60.328125 0 Z M 15.265625 0 "/></g></g></g><g fill="#e4e1da" fill-opacity="1"><g transform="translate(309.267961, 221.321846)"><g><path d="M 27.609375 -15.53125 C 13.109375 -28.425781 5.859375 -44.96875 5.859375 -65.15625 C 5.859375 -85.351562 13.40625 -101.941406 28.5 -114.921875 C 43.601562 -127.898438 62.269531 -134.390625 84.5 -134.390625 C 106.394531 -134.390625 124.847656 -127.851562 139.859375 -114.78125 C 154.878906 -101.71875 162.390625 -85.175781 162.390625 -65.15625 C 162.390625 -45.132812 155.050781 -28.632812 140.375 -15.65625 C 125.695312 -2.675781 107.070312 3.8125 84.5 3.8125 C 61.082031 3.8125 42.117188 -2.632812 27.609375 -15.53125 Z M 62.484375 -87.296875 C 56.628906 -81.535156 53.703125 -74.15625 53.703125 -65.15625 C 53.703125 -56.164062 56.5 -48.828125 62.09375 -43.140625 C 67.695312 -37.453125 75.082031 -34.609375 84.25 -34.609375 C 93.070312 -34.609375 100.320312 -37.492188 106 -43.265625 C 111.6875 -49.035156 114.53125 -56.332031 114.53125 -65.15625 C 114.53125 -74.15625 111.601562 -81.535156 105.75 -87.296875 C 99.894531 -93.066406 92.726562 -95.953125 84.25 -95.953125 C 75.59375 -95.953125 68.335938 -93.066406 62.484375 -87.296875 Z M 62.484375 -87.296875 "/></g></g></g><g fill="#e4e1da" fill-opacity="1"><g transform="translate(453.546711, 221.321846)"><g><path d="M 149.65625 -114.40625 C 161.875 -101.09375 167.984375 -84.757812 167.984375 -65.40625 C 167.984375 -46.0625 161.875 -29.6875 149.65625 -16.28125 C 137.445312 -2.882812 121.921875 3.8125 103.078125 3.8125 C 85.773438 3.8125 71.523438 -1.613281 60.328125 -12.46875 L 60.328125 66.171875 L 15.265625 66.171875 L 15.265625 -130.578125 L 59.8125 -130.578125 L 59.8125 -115.8125 L 60.328125 -115.8125 C 71.523438 -128.195312 85.773438 -134.390625 103.078125 -134.390625 C 121.921875 -134.390625 137.445312 -127.726562 149.65625 -114.40625 Z M 111.359375 -43.265625 C 117.210938 -49.035156 120.140625 -56.414062 120.140625 -65.40625 C 120.140625 -74.40625 117.335938 -81.742188 111.734375 -87.421875 C 106.140625 -93.109375 98.757812 -95.953125 89.59375 -95.953125 C 80.769531 -95.953125 73.515625 -93.066406 67.828125 -87.296875 C 62.148438 -81.535156 59.3125 -74.242188 59.3125 -65.421875 C 59.3125 -56.421875 62.238281 -49.035156 68.09375 -43.265625 C 73.945312 -37.492188 81.113281 -34.609375 89.59375 -34.609375 C 98.25 -34.609375 105.503906 -37.492188 111.359375 -43.265625 Z M 111.359375 -43.265625 "/></g></g></g><g fill="#e4e1da" fill-opacity="1"><g transform="translate(603.423857, 221.321846)"><g><path d="M 19.59375 -203.375 C 24.851562 -208.632812 31.128906 -211.265625 38.421875 -211.265625 C 45.722656 -211.265625 52.003906 -208.632812 57.265625 -203.375 C 62.523438 -198.113281 65.15625 -191.832031 65.15625 -184.53125 C 65.15625 -177.238281 62.523438 -170.960938 57.265625 -165.703125 C 52.003906 -160.441406 45.722656 -157.8125 38.421875 -157.8125 C 31.128906 -157.8125 24.851562 -160.441406 19.59375 -165.703125 C 14.332031 -170.960938 11.703125 -177.238281 11.703125 -184.53125 C 11.703125 -191.832031 14.332031 -198.113281 19.59375 -203.375 Z M 15.265625 -130.578125 L 15.265625 0 L 60.328125 0 L 60.328125 -130.578125 Z M 15.265625 -130.578125 "/></g></g></g><g fill="#e4e1da" fill-opacity="1"><g transform="translate(656.347092, 221.321846)"><g><path d="M 15.265625 0 L 15.265625 -130.578125 L 60.328125 -130.578125 L 60.328125 -116.828125 L 60.828125 -116.828125 C 72.535156 -128.535156 85.007812 -134.390625 98.25 -134.390625 C 104.695312 -134.390625 111.101562 -133.539062 117.46875 -131.84375 C 123.832031 -130.144531 129.941406 -127.515625 135.796875 -123.953125 C 141.648438 -120.390625 146.398438 -115.34375 150.046875 -108.8125 C 153.691406 -102.28125 155.515625 -94.6875 155.515625 -86.03125 L 155.515625 0 L 110.46875 0 L 110.46875 -73.8125 C 110.46875 -80.601562 108.300781 -86.539062 103.96875 -91.625 C 99.644531 -96.71875 94.003906 -99.265625 87.046875 -99.265625 C 80.265625 -99.265625 74.113281 -96.632812 68.59375 -91.375 C 63.082031 -86.113281 60.328125 -80.257812 60.328125 -73.8125 L 60.328125 0 Z M 15.265625 0 "/></g></g></g><g fill="#e4e1da" fill-opacity="1"><g transform="translate(800.625872, 221.321846)"><g/></g></g><g fill="#e4e1da" fill-opacity="1"><g transform="translate(846.169408, 221.321846)"><g><path d="M 2.03125 -167.984375 L 2.03125 -209.984375 L 149.671875 -209.984375 L 149.671875 -167.984375 L 99.78125 -167.984375 L 99.78125 0 L 51.921875 0 L 51.921875 -167.984375 Z M 2.03125 -167.984375 "/></g></g></g><g fill="#e4e1da" fill-opacity="1"><g transform="translate(973.907432, 221.321846)"><g><path d="M 27.609375 -15.53125 C 13.109375 -28.425781 5.859375 -44.96875 5.859375 -65.15625 C 5.859375 -85.351562 13.40625 -101.941406 28.5 -114.921875 C 43.601562 -127.898438 62.269531 -134.390625 84.5 -134.390625 C 106.394531 -134.390625 124.847656 -127.851562 139.859375 -114.78125 C 154.878906 -101.71875 162.390625 -85.175781 162.390625 -65.15625 C 162.390625 -45.132812 155.050781 -28.632812 140.375 -15.65625 C 125.695312 -2.675781 107.070312 3.8125 84.5 3.8125 C 61.082031 3.8125 42.117188 -2.632812 27.609375 -15.53125 Z M 62.484375 -87.296875 C 56.628906 -81.535156 53.703125 -74.15625 53.703125 -65.15625 C 53.703125 -56.164062 56.5 -48.828125 62.09375 -43.140625 C 67.695312 -37.453125 75.082031 -34.609375 84.25 -34.609375 C 93.070312 -34.609375 100.320312 -37.492188 106 -43.265625 C 111.6875 -49.035156 114.53125 -56.332031 114.53125 -65.15625 C 114.53125 -74.15625 111.601562 -81.535156 105.75 -87.296875 C 99.894531 -93.066406 92.726562 -95.953125 84.25 -95.953125 C 75.59375 -95.953125 68.335938 -93.066406 62.484375 -87.296875 Z M 62.484375 -87.296875 "/></g></g></g><g fill="#e4e1da" fill-opacity="1"><g transform="translate(1118.186212, 221.321846)"><g><path d="M 27.609375 -15.53125 C 13.109375 -28.425781 5.859375 -44.96875 5.859375 -65.15625 C 5.859375 -85.351562 13.40625 -101.941406 28.5 -114.921875 C 43.601562 -127.898438 62.269531 -134.390625 84.5 -134.390625 C 106.394531 -134.390625 124.847656 -127.851562 139.859375 -114.78125 C 154.878906 -101.71875 162.390625 -85.175781 162.390625 -65.15625 C 162.390625 -45.132812 155.050781 -28.632812 140.375 -15.65625 C 125.695312 -2.675781 107.070312 3.8125 84.5 3.8125 C 61.082031 3.8125 42.117188 -2.632812 27.609375 -15.53125 Z M 62.484375 -87.296875 C 56.628906 -81.535156 53.703125 -74.15625 53.703125 -65.15625 C 53.703125 -56.164062 56.5 -48.828125 62.09375 -43.140625 C 67.695312 -37.453125 75.082031 -34.609375 84.25 -34.609375 C 93.070312 -34.609375 100.320312 -37.492188 106 -43.265625 C 111.6875 -49.035156 114.53125 -56.332031 114.53125 -65.15625 C 114.53125 -74.15625 111.601562 -81.535156 105.75 -87.296875 C 99.894531 -93.066406 92.726562 -95.953125 84.25 -95.953125 C 75.59375 -95.953125 68.335938 -93.066406 62.484375 -87.296875 Z M 62.484375 -87.296875 "/></g></g></g><g fill="#e4e1da" fill-opacity="1"><g transform="translate(1262.464992, 221.321846)"><g><path d="M 15.265625 0 L 15.265625 -218.890625 L 60.328125 -218.890625 L 60.328125 0 Z M 15.265625 0 "/></g></g></g><g fill="#e4e1da" fill-opacity="1"><g transform="translate(1314.115826, 221.321846)"><g><path d="M 72.03125 -134.390625 C 79.5 -134.390625 86.878906 -133.539062 94.171875 -131.84375 C 101.472656 -130.144531 106.90625 -128.445312 110.46875 -126.75 L 115.8125 -124.21875 L 101.046875 -94.6875 C 90.867188 -100.113281 81.195312 -102.828125 72.03125 -102.828125 C 66.9375 -102.828125 63.328125 -102.273438 61.203125 -101.171875 C 59.085938 -100.066406 58.03125 -97.988281 58.03125 -94.9375 C 58.03125 -94.257812 58.113281 -93.582031 58.28125 -92.90625 C 58.457031 -92.226562 58.796875 -91.59375 59.296875 -91 C 59.804688 -90.40625 60.273438 -89.894531 60.703125 -89.46875 C 61.128906 -89.039062 61.847656 -88.570312 62.859375 -88.0625 C 63.878906 -87.550781 64.6875 -87.171875 65.28125 -86.921875 C 65.875 -86.671875 66.847656 -86.289062 68.203125 -85.78125 C 69.566406 -85.269531 70.585938 -84.882812 71.265625 -84.625 C 71.941406 -84.375 73.085938 -83.992188 74.703125 -83.484375 C 76.316406 -82.972656 77.546875 -82.632812 78.390625 -82.46875 C 83.648438 -80.9375 88.234375 -79.238281 92.140625 -77.375 C 96.046875 -75.507812 100.160156 -72.960938 104.484375 -69.734375 C 108.804688 -66.515625 112.15625 -62.441406 114.53125 -57.515625 C 116.914062 -52.597656 118.109375 -47 118.109375 -40.71875 C 118.109375 -11.03125 97.488281 3.8125 56.25 3.8125 C 46.914062 3.8125 38.046875 2.367188 29.640625 -0.515625 C 21.242188 -3.398438 15.179688 -6.28125 11.453125 -9.15625 L 5.859375 -13.75 L 24.1875 -44.546875 C 25.539062 -43.359375 27.316406 -41.957031 29.515625 -40.34375 C 31.722656 -38.726562 35.710938 -36.519531 41.484375 -33.71875 C 47.253906 -30.925781 52.257812 -29.53125 56.5 -29.53125 C 65.832031 -29.53125 70.5 -32.664062 70.5 -38.9375 C 70.5 -41.820312 69.3125 -44.070312 66.9375 -45.6875 C 64.5625 -47.300781 60.53125 -49.125 54.84375 -51.15625 C 49.164062 -53.195312 44.710938 -55.066406 41.484375 -56.765625 C 33.335938 -61.003906 26.890625 -65.796875 22.140625 -71.140625 C 17.390625 -76.484375 15.015625 -83.566406 15.015625 -92.390625 C 15.015625 -105.628906 20.144531 -115.9375 30.40625 -123.3125 C 40.675781 -130.695312 54.550781 -134.390625 72.03125 -134.390625 Z M 72.03125 -134.390625 "/></g></g></g><g fill="#e4e1da" fill-opacity="1"><g transform="translate(1415.388817, 221.321846)"><g><path d="M 44.28125 -54.46875 C 52.425781 -54.46875 59.34375 -51.625 65.03125 -45.9375 C 70.71875 -40.257812 73.5625 -33.347656 73.5625 -25.203125 C 73.5625 -17.222656 70.71875 -10.390625 65.03125 -4.703125 C 59.34375 0.972656 52.425781 3.8125 44.28125 3.8125 C 36.3125 3.8125 29.484375 0.972656 23.796875 -4.703125 C 18.109375 -10.390625 15.265625 -17.222656 15.265625 -25.203125 C 15.265625 -33.347656 18.109375 -40.257812 23.796875 -45.9375 C 29.484375 -51.625 36.3125 -54.46875 44.28125 -54.46875 Z M 44.28125 -54.46875 "/></g></g></g></svg>