<svg xmlns="http://www.w3.org/2000/svg" xmlns:xlink="http://www.w3.org/1999/xlink" width="369" zoomAndPan="magnify" viewBox="0 0 276.75 36.000001" height="48" preserveAspectRatio="xMidYMid meet" version="1.0"><defs><g/></defs><g fill="#ffffff" fill-opacity="1"><g transform="translate(7.120942, 30.37914)"><g><path d="M 1.234375 -13.171875 C 1.234375 -15.765625 1.796875 -18.078125 2.921875 -20.109375 C 4.046875 -22.148438 5.609375 -23.734375 7.609375 -24.859375 C 9.617188 -25.992188 11.894531 -26.5625 14.4375 -26.5625 C 17.5625 -26.5625 20.234375 -25.738281 22.453125 -24.09375 C 24.671875 -22.445312 26.15625 -20.203125 26.90625 -17.359375 L 19.875 -17.359375 C 19.34375 -18.460938 18.597656 -19.300781 17.640625 -19.875 C 16.679688 -20.445312 15.59375 -20.734375 14.375 -20.734375 C 12.394531 -20.734375 10.796875 -20.046875 9.578125 -18.671875 C 8.359375 -17.296875 7.75 -15.460938 7.75 -13.171875 C 7.75 -10.878906 8.359375 -9.046875 9.578125 -7.671875 C 10.796875 -6.296875 12.394531 -5.609375 14.375 -5.609375 C 15.59375 -5.609375 16.679688 -5.894531 17.640625 -6.46875 C 18.597656 -7.039062 19.34375 -7.878906 19.875 -8.984375 L 26.90625 -8.984375 C 26.15625 -6.140625 24.671875 -3.898438 22.453125 -2.265625 C 20.234375 -0.628906 17.5625 0.1875 14.4375 0.1875 C 11.894531 0.1875 9.617188 -0.378906 7.609375 -1.515625 C 5.609375 -2.648438 4.046875 -4.226562 2.921875 -6.25 C 1.796875 -8.269531 1.234375 -10.578125 1.234375 -13.171875 Z M 1.234375 -13.171875 "/></g></g></g><g fill="#ffffff" fill-opacity="1"><g transform="translate(33.760044, 30.37914)"><g><path d="M 25.078125 -26.265625 L 25.078125 0 L 18.671875 0 L 18.671875 -10.8125 L 8.71875 -10.8125 L 8.71875 0 L 2.3125 0 L 2.3125 -26.265625 L 8.71875 -26.265625 L 8.71875 -15.984375 L 18.671875 -15.984375 L 18.671875 -26.265625 Z M 25.078125 -26.265625 "/></g></g></g><g fill="#ffffff" fill-opacity="1"><g transform="translate(59.239275, 30.37914)"><g><path d="M 14.75 0.265625 C 12.28125 0.265625 10.015625 -0.304688 7.953125 -1.453125 C 5.890625 -2.609375 4.253906 -4.210938 3.046875 -6.265625 C 1.835938 -8.328125 1.234375 -10.640625 1.234375 -13.203125 C 1.234375 -15.773438 1.835938 -18.082031 3.046875 -20.125 C 4.253906 -22.175781 5.890625 -23.773438 7.953125 -24.921875 C 10.015625 -26.066406 12.28125 -26.640625 14.75 -26.640625 C 17.21875 -26.640625 19.476562 -26.066406 21.53125 -24.921875 C 23.59375 -23.773438 25.210938 -22.175781 26.390625 -20.125 C 27.578125 -18.082031 28.171875 -15.773438 28.171875 -13.203125 C 28.171875 -10.640625 27.570312 -8.328125 26.375 -6.265625 C 25.1875 -4.210938 23.566406 -2.609375 21.515625 -1.453125 C 19.472656 -0.304688 17.21875 0.265625 14.75 0.265625 Z M 14.75 -5.578125 C 16.84375 -5.578125 18.519531 -6.273438 19.78125 -7.671875 C 21.039062 -9.066406 21.671875 -10.910156 21.671875 -13.203125 C 21.671875 -15.523438 21.039062 -17.378906 19.78125 -18.765625 C 18.519531 -20.148438 16.84375 -20.84375 14.75 -20.84375 C 12.625 -20.84375 10.929688 -20.15625 9.671875 -18.78125 C 8.410156 -17.414062 7.78125 -15.554688 7.78125 -13.203125 C 7.78125 -10.890625 8.410156 -9.039062 9.671875 -7.65625 C 10.929688 -6.269531 12.625 -5.578125 14.75 -5.578125 Z M 14.75 -5.578125 "/></g></g></g><g fill="#ffffff" fill-opacity="1"><g transform="translate(86.776343, 30.37914)"><g><path d="M 22.34375 -17.8125 C 22.34375 -16.289062 21.992188 -14.898438 21.296875 -13.640625 C 20.597656 -12.378906 19.523438 -11.363281 18.078125 -10.59375 C 16.628906 -9.820312 14.832031 -9.4375 12.6875 -9.4375 L 8.71875 -9.4375 L 8.71875 0 L 2.3125 0 L 2.3125 -26.265625 L 12.6875 -26.265625 C 14.78125 -26.265625 16.550781 -25.898438 18 -25.171875 C 19.445312 -24.453125 20.53125 -23.457031 21.25 -22.1875 C 21.976562 -20.914062 22.34375 -19.457031 22.34375 -17.8125 Z M 12.203125 -14.515625 C 13.421875 -14.515625 14.328125 -14.800781 14.921875 -15.375 C 15.523438 -15.945312 15.828125 -16.757812 15.828125 -17.8125 C 15.828125 -18.863281 15.523438 -19.675781 14.921875 -20.25 C 14.328125 -20.820312 13.421875 -21.109375 12.203125 -21.109375 L 8.71875 -21.109375 L 8.71875 -14.515625 Z M 12.203125 -14.515625 "/></g></g></g><g fill="#ffffff" fill-opacity="1"><g transform="translate(108.252161, 30.37914)"><g><path d="M 8.71875 -26.265625 L 8.71875 0 L 2.3125 0 L 2.3125 -26.265625 Z M 8.71875 -26.265625 "/></g></g></g><g fill="#ffffff" fill-opacity="1"><g transform="translate(117.418412, 30.37914)"><g><path d="M 25.828125 0 L 19.421875 0 L 8.71875 -16.203125 L 8.71875 0 L 2.3125 0 L 2.3125 -26.265625 L 8.71875 -26.265625 L 19.421875 -9.984375 L 19.421875 -26.265625 L 25.828125 -26.265625 Z M 25.828125 0 "/></g></g></g><g fill="#ffffff" fill-opacity="1"><g transform="translate(143.68336, 30.37914)"><g/></g></g><g fill="#ffffff" fill-opacity="1"><g transform="translate(149.744164, 30.37914)"><g><path d="M 21.21875 -26.265625 L 21.21875 -21.140625 L 14.25 -21.140625 L 14.25 0 L 7.859375 0 L 7.859375 -21.140625 L 0.890625 -21.140625 L 0.890625 -26.265625 Z M 21.21875 -26.265625 "/></g></g></g><g fill="#ffffff" fill-opacity="1"><g transform="translate(169.985287, 30.37914)"><g><path d="M 14.75 0.265625 C 12.28125 0.265625 10.015625 -0.304688 7.953125 -1.453125 C 5.890625 -2.609375 4.253906 -4.210938 3.046875 -6.265625 C 1.835938 -8.328125 1.234375 -10.640625 1.234375 -13.203125 C 1.234375 -15.773438 1.835938 -18.082031 3.046875 -20.125 C 4.253906 -22.175781 5.890625 -23.773438 7.953125 -24.921875 C 10.015625 -26.066406 12.28125 -26.640625 14.75 -26.640625 C 17.21875 -26.640625 19.476562 -26.066406 21.53125 -24.921875 C 23.59375 -23.773438 25.210938 -22.175781 26.390625 -20.125 C 27.578125 -18.082031 28.171875 -15.773438 28.171875 -13.203125 C 28.171875 -10.640625 27.570312 -8.328125 26.375 -6.265625 C 25.1875 -4.210938 23.566406 -2.609375 21.515625 -1.453125 C 19.472656 -0.304688 17.21875 0.265625 14.75 0.265625 Z M 14.75 -5.578125 C 16.84375 -5.578125 18.519531 -6.273438 19.78125 -7.671875 C 21.039062 -9.066406 21.671875 -10.910156 21.671875 -13.203125 C 21.671875 -15.523438 21.039062 -17.378906 19.78125 -18.765625 C 18.519531 -20.148438 16.84375 -20.84375 14.75 -20.84375 C 12.625 -20.84375 10.929688 -20.15625 9.671875 -18.78125 C 8.410156 -17.414062 7.78125 -15.554688 7.78125 -13.203125 C 7.78125 -10.890625 8.410156 -9.039062 9.671875 -7.65625 C 10.929688 -6.269531 12.625 -5.578125 14.75 -5.578125 Z M 14.75 -5.578125 "/></g></g></g><g fill="#ffffff" fill-opacity="1"><g transform="translate(197.522348, 30.37914)"><g><path d="M 14.75 0.265625 C 12.28125 0.265625 10.015625 -0.304688 7.953125 -1.453125 C 5.890625 -2.609375 4.253906 -4.210938 3.046875 -6.265625 C 1.835938 -8.328125 1.234375 -10.640625 1.234375 -13.203125 C 1.234375 -15.773438 1.835938 -18.082031 3.046875 -20.125 C 4.253906 -22.175781 5.890625 -23.773438 7.953125 -24.921875 C 10.015625 -26.066406 12.28125 -26.640625 14.75 -26.640625 C 17.21875 -26.640625 19.476562 -26.066406 21.53125 -24.921875 C 23.59375 -23.773438 25.210938 -22.175781 26.390625 -20.125 C 27.578125 -18.082031 28.171875 -15.773438 28.171875 -13.203125 C 28.171875 -10.640625 27.570312 -8.328125 26.375 -6.265625 C 25.1875 -4.210938 23.566406 -2.609375 21.515625 -1.453125 C 19.472656 -0.304688 17.21875 0.265625 14.75 0.265625 Z M 14.75 -5.578125 C 16.84375 -5.578125 18.519531 -6.273438 19.78125 -7.671875 C 21.039062 -9.066406 21.671875 -10.910156 21.671875 -13.203125 C 21.671875 -15.523438 21.039062 -17.378906 19.78125 -18.765625 C 18.519531 -20.148438 16.84375 -20.84375 14.75 -20.84375 C 12.625 -20.84375 10.929688 -20.15625 9.671875 -18.78125 C 8.410156 -17.414062 7.78125 -15.554688 7.78125 -13.203125 C 7.78125 -10.890625 8.410156 -9.039062 9.671875 -7.65625 C 10.929688 -6.269531 12.625 -5.578125 14.75 -5.578125 Z M 14.75 -5.578125 "/></g></g></g><g fill="#ffffff" fill-opacity="1"><g transform="translate(225.05941, 30.37914)"><g><path d="M 8.71875 -4.9375 L 17.109375 -4.9375 L 17.109375 0 L 2.3125 0 L 2.3125 -26.265625 L 8.71875 -26.265625 Z M 8.71875 -4.9375 "/></g></g></g><g fill="#ffffff" fill-opacity="1"><g transform="translate(241.035217, 30.37914)"><g><path d="M 11.828125 0.265625 C 9.898438 0.265625 8.175781 -0.046875 6.65625 -0.671875 C 5.132812 -1.296875 3.914062 -2.21875 3 -3.4375 C 2.09375 -4.664062 1.617188 -6.140625 1.578125 -7.859375 L 8.375 -7.859375 C 8.476562 -6.890625 8.816406 -6.144531 9.390625 -5.625 C 9.960938 -5.113281 10.710938 -4.859375 11.640625 -4.859375 C 12.585938 -4.859375 13.332031 -5.078125 13.875 -5.515625 C 14.425781 -5.953125 14.703125 -6.554688 14.703125 -7.328125 C 14.703125 -7.984375 14.484375 -8.519531 14.046875 -8.9375 C 13.609375 -9.363281 13.070312 -9.710938 12.4375 -9.984375 C 11.800781 -10.265625 10.898438 -10.578125 9.734375 -10.921875 C 8.035156 -11.453125 6.648438 -11.976562 5.578125 -12.5 C 4.503906 -13.019531 3.578125 -13.789062 2.796875 -14.8125 C 2.023438 -15.84375 1.640625 -17.179688 1.640625 -18.828125 C 1.640625 -21.265625 2.523438 -23.175781 4.296875 -24.5625 C 6.066406 -25.945312 8.378906 -26.640625 11.234375 -26.640625 C 14.117188 -26.640625 16.445312 -25.945312 18.21875 -24.5625 C 19.988281 -23.175781 20.9375 -21.25 21.0625 -18.78125 L 14.140625 -18.78125 C 14.097656 -19.632812 13.785156 -20.300781 13.203125 -20.78125 C 12.628906 -21.269531 11.894531 -21.515625 11 -21.515625 C 10.226562 -21.515625 9.601562 -21.304688 9.125 -20.890625 C 8.65625 -20.484375 8.421875 -19.894531 8.421875 -19.125 C 8.421875 -18.269531 8.816406 -17.601562 9.609375 -17.125 C 10.410156 -16.65625 11.660156 -16.148438 13.359375 -15.609375 C 15.054688 -15.035156 16.429688 -14.484375 17.484375 -13.953125 C 18.546875 -13.429688 19.460938 -12.671875 20.234375 -11.671875 C 21.015625 -10.671875 21.40625 -9.390625 21.40625 -7.828125 C 21.40625 -6.328125 21.023438 -4.960938 20.265625 -3.734375 C 19.503906 -2.515625 18.398438 -1.539062 16.953125 -0.8125 C 15.503906 -0.09375 13.796875 0.265625 11.828125 0.265625 Z M 11.828125 0.265625 "/></g></g></g></svg>